<svg xmlns="http://www.w3.org/2000/svg" xmlns:xlink="http://www.w3.org/1999/xlink" viewBox="0,0,256,256" width="24px" height="24px"><g fill="#fffcfc" fill-rule="nonzero" stroke="none" stroke-width="1" stroke-linecap="butt" stroke-linejoin="miter" stroke-miterlimit="10" stroke-dasharray="" stroke-dashoffset="0" font-family="none" font-weight="none" font-size="none" text-anchor="none" style="mix-blend-mode: normal"><g transform="scale(10.66667,10.66667)"><path d="M20,14h-16c-1.105,0 -2,-0.895 -2,-2v0c0,-1.105 0.895,-2 2,-2h16c1.105,0 2,0.895 2,2v0c0,1.105 -0.895,2 -2,2z" opacity="0.35"></path><path d="M20,7h-16c-1.105,0 -2,-0.895 -2,-2v0c0,-1.105 0.895,-2 2,-2h16c1.105,0 2,0.895 2,2v0c0,1.105 -0.895,2 -2,2z"></path><path d="M20,21h-16c-1.105,0 -2,-0.895 -2,-2v0c0,-1.105 0.895,-2 2,-2h16c1.105,0 2,0.895 2,2v0c0,1.105 -0.895,2 -2,2z"></path></g></g></svg>